<svg width="20" height="19" viewBox="0 0 20 19" fill="none" xmlns="http://www.w3.org/2000/svg">
<path d="M5.04788 10.406L8.58288 13.942L7.16988 15.356L8.58488 16.771L7.17088 18.185L4.69588 15.71L1.86688 18.539L0.452881 17.125L3.28188 14.295L0.806881 11.821L2.22088 10.407L3.63488 11.82L5.04788 10.406ZM0.999881 0L4.54588 0.00300002L16.3629 11.821L17.7779 10.407L19.1929 11.821L16.7179 14.296L19.5459 17.125L18.1319 18.539L15.3029 15.71L12.8289 18.185L11.4139 16.771L12.8279 15.356L1.00188 3.531L0.999881 0ZM15.4569 0L18.9999 0.00300002L19.0019 3.526L14.9489 7.578L11.4129 4.043L15.4569 0Z" fill="white"/>
</svg>
